<?xml version="1.0" encoding="utf-8"?>
<!-- Generator: Adobe Illustrator 25.0.0, SVG Export Plug-In . SVG Version: 6.00 Build 0)  -->
<svg version="1.1" id="Capa_1" xmlns="http://www.w3.org/2000/svg" xmlns:xlink="http://www.w3.org/1999/xlink" x="0px" y="0px"
	 viewBox="0 0 20 25.2" style="enable-background:new 0 0 20 25.2;" xml:space="preserve">
<style type="text/css">
	.st0{fill:#F4ADCB;}
</style>
<path class="st0" d="M1.9-34.2c0.5,0,0.9,0.2,1.3,0.5c0.4,0.3,0.6,0.8,0.6,1.3v21.5c0,1-0.9,1.8-1.9,1.8c-0.5,0-1-0.2-1.3-0.5
	C0.2-9.9,0-10.3,0-10.8v-21.5c0-0.5,0.2-1,0.5-1.3C0.9-34,1.4-34.2,1.9-34.2z M1.8-23.5h16.4l0,3.5H1.7L1.8-23.5z M18.2-34.2
	c1-0.1,1.8,0.7,1.9,1.6c0,0.1,0,0.1,0,0.2v21.5c0,0.5-0.2,1-0.5,1.3C19.1-9.2,18.6-9,18.1-9c-0.5,0-1-0.2-1.3-0.5
	c-0.4-0.3-0.6-0.8-0.5-1.3v-21.5c0-0.5,0.2-1,0.6-1.3C17.2-34,17.7-34.2,18.2-34.2L18.2-34.2z"/>
<path class="st0" d="M43.6-18.5c0,1.8-0.4,3.5-1.3,5.1c-0.8,1.4-2,2.6-3.4,3.5c-3,1.7-6.7,1.7-9.7,0c-1.4-0.8-2.6-2-3.4-3.5
	c-0.9-1.6-1.3-3.3-1.3-5.1c0-1.8,0.4-3.6,1.3-5.1c0.8-1.4,2-2.6,3.4-3.5c4.5-2.7,10.4-1.2,13,3.3c0,0.1,0.1,0.1,0.1,0.2
	C43.2-22,43.7-20.3,43.6-18.5z M40-18.5c0-1.2-0.2-2.4-0.8-3.4c-0.5-0.9-1.2-1.7-2.1-2.3c-0.9-0.6-1.9-0.9-3-0.8
	c-1.1,0-2.1,0.3-3,0.8c-0.9,0.6-1.7,1.4-2.2,2.3c-0.5,1.1-0.8,2.2-0.8,3.4c0,1.2,0.2,2.3,0.8,3.4c0.5,1,1.2,1.7,2.2,2.3
	c0.9,0.6,2,0.8,3,0.8c1.1,0,2.1-0.3,3-0.8c0.9-0.6,1.6-1.4,2.1-2.3C39.8-16.1,40-17.3,40-18.5L40-18.5z"/>
<path class="st0" d="M49-9c-0.5,0-1-0.1-1.4-0.5c-0.3-0.4-0.5-0.9-0.5-1.4v-0.6c0-0.5,0.1-1,0.5-1.4c0.4-0.4,0.9-0.5,1.4-0.5h0.4
	c0.5,0,1,0.1,1.4,0.5c0.3,0.4,0.5,0.9,0.5,1.4v0.6c0,0.5-0.1,1-0.5,1.4C50.5-9.2,50-9,49.4-9L49-9z"/>
<path class="st0" d="M58.1-34.2c0.3,0,0.6,0.1,0.9,0.2c0.3,0.1,0.5,0.3,0.7,0.6l9.1,13.9l-1.5-0.1l9.3-13.9c0.3-0.5,0.9-0.8,1.5-0.8
	c0.5,0,0.9,0.2,1.3,0.5c0.4,0.3,0.6,0.8,0.6,1.3v21.6c0,0.5-0.2,1-0.5,1.3C79.1-9.2,78.6-9,78.1-9c-0.5,0-1-0.2-1.4-0.5
	c-0.3-0.3-0.5-0.8-0.5-1.3v-18.3l1.2,0.3l-7.9,12.1c-0.2,0.2-0.4,0.4-0.6,0.6c-0.5,0.3-1.1,0.3-1.6,0c-0.3-0.1-0.5-0.3-0.7-0.6
	l-7.6-11.9l0.9-1.4v19.3c0,0.5-0.2,1-0.5,1.3C58.9-9.2,58.4-9,57.9-9c-0.5,0-0.9-0.2-1.2-0.5c-0.3-0.4-0.5-0.8-0.5-1.3v-21.6
	c0-0.5,0.2-1,0.6-1.3C57.1-34,57.6-34.2,58.1-34.2z"/>
<path class="st0" d="M87.7-34.2c0.3,0,0.6,0.1,0.9,0.2c0.3,0.1,0.5,0.3,0.7,0.6l9.1,13.9l-1.5-0.1l9.3-13.9c0.3-0.5,0.9-0.8,1.5-0.8
	c0.5,0,0.9,0.2,1.3,0.5c0.4,0.3,0.6,0.8,0.6,1.3v21.6c0,0.5-0.2,1-0.5,1.3c-0.4,0.4-0.8,0.5-1.3,0.5c-0.5,0-1-0.2-1.4-0.5
	c-0.3-0.3-0.5-0.8-0.5-1.3v-18.3l1.2,0.3L99-16.8c-0.2,0.2-0.4,0.4-0.6,0.6c-0.5,0.3-1.1,0.3-1.6,0c-0.3-0.1-0.5-0.3-0.7-0.6
	l-7.6-11.9l0.9-1.4v19.3c0,0.5-0.2,1-0.5,1.3C88.5-9.2,88-9,87.5-9c-0.5,0-0.9-0.2-1.2-0.5c-0.3-0.4-0.5-0.8-0.5-1.3v-21.6
	c0-0.5,0.2-1,0.6-1.3C86.7-34,87.2-34.2,87.7-34.2z"/>
<path class="st0" d="M130.5-28.2c0.5,0,1,0.2,1.3,0.5c0.3,0.4,0.5,0.8,0.5,1.3v15.6c0,0.5-0.2,1-0.5,1.3c-0.7,0.7-1.9,0.7-2.6,0
	c-0.3-0.3-0.5-0.8-0.5-1.3v-2.6l0.8,0.1c0,0.5-0.2,1-0.5,1.4c-0.4,0.6-0.9,1.1-1.4,1.5c-0.6,0.5-1.4,0.9-2.1,1.2
	c-0.8,0.3-1.7,0.5-2.6,0.5c-1.6,0-3.1-0.4-4.5-1.3c-1.3-0.9-2.4-2.1-3.1-3.5c-0.8-1.6-1.2-3.3-1.2-5.1c0-1.8,0.4-3.5,1.2-5.1
	c0.7-1.4,1.8-2.6,3.1-3.5c2.2-1.4,4.8-1.6,7.2-0.8c0.8,0.3,1.6,0.7,2.3,1.3c0.6,0.5,1.1,1,1.5,1.7c0.3,0.5,0.5,1.1,0.5,1.7l-1.1,0.1
	v-3.3c0-0.5,0.2-1,0.5-1.3C129.6-28,130-28.2,130.5-28.2z M123.2-11.9c1.1,0,2.1-0.3,3-0.9c0.9-0.6,1.6-1.4,2-2.4
	c0.5-1,0.7-2.2,0.7-3.3c0-1.2-0.2-2.3-0.7-3.3c-0.4-0.9-1.1-1.8-2-2.3c-0.9-0.6-1.9-0.9-3-0.9c-1,0-2.1,0.3-2.9,0.9
	c-0.9,0.6-1.6,1.4-2,2.3c-0.5,1-0.8,2.2-0.7,3.3c0,1.2,0.2,2.3,0.7,3.3c0.5,0.9,1.1,1.8,2,2.4C121.1-12.2,122.1-11.9,123.2-11.9z"/>
<path class="st0" d="M2,0c0.5,0,0.9,0.2,1.3,0.5c0.4,0.3,0.6,0.8,0.6,1.3v21.5c0,1-0.9,1.8-1.9,1.8c-0.5,0-1-0.2-1.3-0.5
	C0.2,24.3,0,23.9,0,23.4V1.8c0-0.5,0.2-1,0.5-1.3C0.9,0.2,1.4,0,2,0z M1.8,10.7h16.4l0,3.5H1.8L1.8,10.7z M18.2,0
	c1-0.1,1.8,0.7,1.9,1.6c0,0.1,0,0.1,0,0.2v15.5c0,0.5-0.2,1-0.5,1.3c-0.4,0.4-0.9,0.5-1.4,0.5c-0.5,0-1-0.2-1.3-0.5
	c-0.4-0.3-0.6-0.8-0.5-1.3V1.8c0-0.5,0.2-1,0.6-1.3C17.2,0.2,17.7,0,18.2,0L18.2,0z"/>
<path class="st0" d="M18,25.2c-0.5,0-0.9-0.1-1.3-0.5c-0.3-0.4-0.5-0.9-0.4-1.4v-0.6c0-0.5,0.1-1,0.4-1.4c0.3-0.4,0.8-0.5,1.3-0.5
	h0.4c0.5,0,0.9,0.1,1.2,0.5c0.3,0.4,0.5,0.9,0.4,1.4v0.6c0,0.5-0.1,1-0.4,1.4c-0.3,0.4-0.8,0.5-1.2,0.5L18,25.2z"/>
</svg>
