<svg id="Capa_1" data-name="Capa 1" xmlns="http://www.w3.org/2000/svg" viewBox="0 0 132.3345 25.5957"><defs><style>.cls-1{fill:#f4adcb;}</style></defs><path class="cls-1" d="M5.35,3.5365a1.8233,1.8233,0,0,1,1.2784.5219,1.7268,1.7268,0,0,1,.5576,1.3145V26.9007a1.9053,1.9053,0,0,1-1.9077,1.836,1.8255,1.8255,0,0,1-1.35-.522,1.78,1.78,0,0,1-.522-1.314V5.3729a1.7541,1.7541,0,0,1,.54-1.3145A1.9391,1.9391,0,0,1,5.35,3.5365Zm-.144,10.728h16.416l-.0356,3.456H5.17Zm16.38-10.728a1.76,1.76,0,0,1,1.8715,1.8364V26.9007a1.7821,1.7821,0,0,1-.5219,1.314,1.8725,1.8725,0,0,1-1.3858.522,1.7978,1.7978,0,0,1-1.2959-.522,1.7488,1.7488,0,0,1-.54-1.314V5.3729a1.7234,1.7234,0,0,1,.5581-1.3145A1.8628,1.8628,0,0,1,21.5863,3.5365Z" transform="translate(-3.4061 -3.5008)"/><path class="cls-1" d="M47.0379,19.2689a10.1188,10.1188,0,0,1-1.26,5.0937,9.2319,9.2319,0,0,1-3.42,3.4742,10.0044,10.0044,0,0,1-9.72,0A9.3611,9.3611,0,0,1,29.2,24.3626a9.999,9.999,0,0,1-1.2783-5.0937,10.0731,10.0731,0,0,1,1.2783-5.13,9.5,9.5,0,0,1,3.438-3.4917,9.5154,9.5154,0,0,1,13.14,3.4917A10.194,10.194,0,0,1,47.0379,19.2689Zm-3.6,0a7.0979,7.0979,0,0,0-.792-3.438,6.1,6.1,0,0,0-2.1421-2.3042,5.5505,5.5505,0,0,0-3.0058-.8462,5.64,5.64,0,0,0-3.0239.8462,6.0435,6.0435,0,0,0-2.16,2.3042,7.0934,7.0934,0,0,0-.792,3.438,7.0411,7.0411,0,0,0,.792,3.3838,5.8783,5.8783,0,0,0,2.16,2.3042,5.7247,5.7247,0,0,0,3.0239.8276,5.634,5.634,0,0,0,3.0058-.8276,5.931,5.931,0,0,0,2.1421-2.3042A7.0457,7.0457,0,0,0,43.4378,19.2689Z" transform="translate(-3.4061 -3.5008)"/><path class="cls-1" d="M52.4735,28.7005a1.8347,1.8347,0,0,1-1.3863-.5039,1.9394,1.9394,0,0,1-.4858-1.4038v-.6479a1.9421,1.9421,0,0,1,.4858-1.4043,1.8363,1.8363,0,0,1,1.3863-.5039h.396a1.7754,1.7754,0,0,1,1.3676.5039,1.9861,1.9861,0,0,1,.4683,1.4043v.6479a1.9833,1.9833,0,0,1-.4683,1.4038,1.774,1.774,0,0,1-1.3676.5039Z" transform="translate(-3.4061 -3.5008)"/><path class="cls-1" d="M61.5091,3.5008a2.1439,2.1439,0,0,1,.9.2158,1.6532,1.6532,0,0,1,.72.6119l9.1436,13.9321-1.5479-.0718,9.3243-13.86a1.7329,1.7329,0,0,1,1.476-.8277,1.8206,1.8206,0,0,1,1.2779.522,1.7251,1.7251,0,0,1,.5581,1.314V26.9007a1.817,1.817,0,0,1-.5039,1.314,1.7678,1.7678,0,0,1-1.3321.522,1.8729,1.8729,0,0,1-1.3862-.522,1.78,1.78,0,0,1-.522-1.314V8.6488l1.1519.2519-7.92,12.06a2.2853,2.2853,0,0,1-.648.5581,1.7955,1.7955,0,0,1-1.6382,0,2.2086,2.2086,0,0,1-.666-.5581L62.265,9.0809l.8642-1.44v19.26a1.8515,1.8515,0,0,1-.4863,1.314,1.6642,1.6642,0,0,1-1.2778.522,1.6224,1.6224,0,0,1-1.2422-.522,1.8534,1.8534,0,0,1-.4859-1.314V5.3368a1.7373,1.7373,0,0,1,.5581-1.2959A1.8255,1.8255,0,0,1,61.5091,3.5008Z" transform="translate(-3.4061 -3.5008)"/><path class="cls-1" d="M91.1009,3.5008a2.1478,2.1478,0,0,1,.9.2158,1.649,1.649,0,0,1,.72.6119l9.1436,13.9321-1.5479-.0718,9.3243-13.86a1.7342,1.7342,0,0,1,1.4765-.8277,1.8185,1.8185,0,0,1,1.2774.522,1.7238,1.7238,0,0,1,.5586,1.314V26.9007a1.8188,1.8188,0,0,1-.504,1.314,1.7681,1.7681,0,0,1-1.332.522,1.8739,1.8739,0,0,1-1.3867-.522,1.7814,1.7814,0,0,1-.5215-1.314V8.6488l1.1514.2519-7.92,12.06a2.283,2.283,0,0,1-.6475.5581,1.7965,1.7965,0,0,1-1.6387,0,2.2148,2.2148,0,0,1-.666-.5581l-7.6318-11.88.8642-1.44v19.26a1.8515,1.8515,0,0,1-.4863,1.314,1.6624,1.6624,0,0,1-1.2773.522,1.6224,1.6224,0,0,1-1.2422-.522,1.8516,1.8516,0,0,1-.4864-1.314V5.3368a1.7359,1.7359,0,0,1,.5586-1.2959A1.8235,1.8235,0,0,1,91.1009,3.5008Z" transform="translate(-3.4061 -3.5008)"/><path class="cls-1" d="M133.9408,9.5125a1.7242,1.7242,0,0,1,1.2959.522,1.8171,1.8171,0,0,1,.5039,1.314V26.9007a1.815,1.815,0,0,1-.5039,1.314,1.8479,1.8479,0,0,1-2.5743,0,1.7818,1.7818,0,0,1-.5214-1.314V24.3084l.7558.1084a2.6947,2.6947,0,0,1-.5215,1.44,7.0024,7.0024,0,0,1-1.4228,1.53,7.9351,7.9351,0,0,1-2.124,1.2241,7.048,7.048,0,0,1-2.628.4858,8.0549,8.0549,0,0,1-4.4638-1.2778,8.9712,8.9712,0,0,1-3.1319-3.51,10.899,10.899,0,0,1-1.1523-5.0757,10.95,10.95,0,0,1,1.1523-5.13,8.9249,8.9249,0,0,1,3.1143-3.4742,8.2767,8.2767,0,0,1,7.2353-.7558,8.2778,8.2778,0,0,1,2.2862,1.2959,6.38,6.38,0,0,1,1.4941,1.6738,3.3108,3.3108,0,0,1,.5225,1.6738l-1.1162.1084V11.3485a1.7991,1.7991,0,0,1,.5214-1.2959A1.71,1.71,0,0,1,133.9408,9.5125Zm-7.3438,16.272a5.2651,5.2651,0,0,0,2.9883-.8638,5.7923,5.7923,0,0,0,2.0156-2.3579,7.576,7.576,0,0,0,.72-3.33,7.5489,7.5489,0,0,0-.72-3.3481,5.8158,5.8158,0,0,0-2.0156-2.34,5.2616,5.2616,0,0,0-2.9883-.8643,5.1155,5.1155,0,0,0-2.9346.8643,5.9924,5.9924,0,0,0-2.0156,2.34,7.3854,7.3854,0,0,0-.7383,3.3481,7.4119,7.4119,0,0,0,.7383,3.33,5.9662,5.9662,0,0,0,2.0156,2.3579A5.1188,5.1188,0,0,0,126.597,25.7845Z" transform="translate(-3.4061 -3.5008)"/></svg>